<svg xmlns="http://www.w3.org/2000/svg" width="48" height="48" viewBox="0 0 48 48"><path fill="#444" d="M21 24.5c0-1.38 1.12-2.5 2.5-2.5s2.5 1.12 2.5 2.5-1.12 2.5-2.5 2.5-2.5-1.12-2.5-2.5zm2.5-6.5c-3.59 0-6.5 2.91-6.5 6.5s2.91 6.5 6.5 6.5 6.5-2.91 6.5-6.5-2.91-6.5-6.5-6.5zM6.66 29.28c.38 1.35.92 2.63 1.6 3.82l-3 3.28c-.86.86-.86 2.25 0 3.11l3.25 3.25c.86.858 2.25.858 3.11 0l3.28-3c1.19.68 2.47 1.22 3.82 1.6L19 45.8c0 1.22.98 2.2 2.2 2.2h4.6c1.22 0 2.2-.98 2.2-2.2l.28-4.46c1.35-.38 2.63-.92 3.82-1.6l3.28 3c.86.86 2.25.86 3.11 0l3.25-3.25c.858-.86.858-2.25 0-3.11l-3-3.28c.68-1.19 1.22-2.47 1.6-3.82L44.8 29c1.22 0 2.2-.98 2.2-2.2v-4.6c0-1.22-.98-2.2-2.2-2.2l-4.46-.28c-.38-1.35-.92-2.63-1.6-3.82l3-3.28c.86-.86.86-2.25 0-3.11l-3.25-3.25c-.86-.86-2.25-.86-3.11 0l-3.28 3c-1.19-.68-2.47-1.22-3.82-1.6L28 3.2c0-1.22-.98-2.2-2.2-2.2h-4.6c-1.22 0-2.2.98-2.2 2.2l-.28 4.46c-1.35.38-2.63.92-3.82 1.6l-3.28-3c-.86-.86-2.25-.86-3.11 0L5.26 9.51c-.86.86-.86 2.25 0 3.11l3 3.28c-.68 1.19-1.22 2.47-1.6 3.82L2.2 20C.98 20 0 20.98 0 22.2v4.6C0 28.02.98 29 2.2 29l4.46.28zM23.5 14C29.3 14 34 18.7 34 24.5S29.3 35 23.5 35 13 30.3 13 24.5 17.7 14 23.5 14z"/></svg>