<svg xmlns="http://www.w3.org/2000/svg" width="48" height="48" viewBox="0 0 48 48"><path fill="#444" d="M23.11 27.64L6.16 44.59c-.36.36-.58.86-.58 1.41 0 1.1.89 2 2 2 .29 0 .56-.06.81-.17 0 0 28.24-12.24 28.56-12.39.66-.3 1.17-.88 1.37-1.6l4.57-16.47.92.91c.96.96 2.51.96 3.47 0 .96-.96.96-2.512 0-3.47L33.19.72c-.96-.96-2.51-.96-3.47 0-.96.96-.96 2.51 0 3.47l.91.91-16.5 4.59c-.72.21-1.3.73-1.6 1.41L.16 39.64c-.1.24-.16.5-.16.78 0 1.11.9 2 2 2 .57 0 1.08-.23 1.44-.61l16.92-16.92C20.13 24.3 20 23.67 20 23c0-2.76 2.24-5 5-5s5 2.24 5 5-2.24 5-5 5c-.67 0-1.3-.13-1.89-.36z"/></svg>