<svg xmlns="http://www.w3.org/2000/svg" width="48" height="48" viewBox="0 0 48 48"><path fill="#444" d="M41.69 34.59c-2.9-3.79-6.64-5.75-12.96-6.38-1.14-.23-2-1.24-2-2.44 0-.88 2.82-3.51 2.8-3.53 2.91-3.01 4.47-7.9 4.47-11.66C34 4.74 29.3 0 23.5 0S13 4.74 13 10.58c0 3.78 1.52 8.7 4.46 11.71 0 0 2.81 2.6 2.81 3.48 0 1.27-.96 2.33-2.2 2.48-6.19.65-9.89 2.6-12.76 6.34C4.48 35.67 4.03 37.84 4 39c.01.3 0 5 0 5 0 2.21 1.79 4 4 4h31c2.21 0 4-1.79 4-4 0 0-.01-4.7 0-5-.03-1.16-.48-3.33-1.31-4.41z"/></svg>