<svg xmlns="http://www.w3.org/2000/svg" style="display: none;"><defs><linearGradient x1=".085" y1=".085" x2=".915" y2=".915" id="social-1-rss-a"><stop offset="0" stop-color="#E3702D"/><stop offset=".107" stop-color="#EA7D31"/><stop offset=".35" stop-color="#F69537"/><stop offset=".5" stop-color="#FB9E3A"/><stop offset=".702" stop-color="#EA7C31"/><stop offset=".887" stop-color="#DE642B"/><stop offset="1" stop-color="#D95B29"/></linearGradient></defs><symbol viewBox="0 0 24 24" id="icon-arrow-left"><title>arrow-left</title><path d="M15.415 16.335L10.83 11.75l4.585-4.585L14 5.75l-6 6 6 6z"/></symbol><symbol viewBox="0 0 24 24" id="icon-arrow-right"><title>arrow-right</title><path d="M8.585 16.46l4.585-4.585L8.585 7.29 10 5.875l6 6-6 6z"/></symbol><symbol viewBox="0 0 28 28" id="icon-dribbble"><title>dribbble</title><path d="M16 23.438q-.656-3.766-2.188-7.78h-.03l-.032.015q-.25.094-.672.258t-1.578.767-2.14 1.28-2.048 1.79-1.61 2.312l-.233-.173Q8.343 24.25 12 24.25q2.063 0 4-.81zm-2.89-9.485q-.33-.766-.83-1.734Q7.423 13.67 1.766 13.67q-.016.11-.016.328 0 1.937.687 3.695t1.937 3.148q.78-1.39 1.93-2.602t2.227-1.944 2.04-1.266 1.555-.75l.578-.203q.063-.016.203-.055t.203-.07zm-1.672-3.312Q9.563 7.314 7.625 4.736 5.47 5.75 3.97 7.64t-2 4.25q4.718 0 9.468-1.25zm10.687 4.985q-3.28-.938-6.39-.453 1.358 3.734 2 7.328 1.733-1.172 2.89-2.96t1.5-3.915zM9.547 4.047q-.016 0-.03.016.015-.016.03-.016zm9.22 2.265Q15.874 3.75 12 3.75q-1.188 0-2.422.297 2.047 2.656 3.844 5.97 1.078-.407 2.03-.946t1.51-.96 1.022-.89.586-.634zm3.483 7.58q-.047-3.626-2.328-6.407l-.016.016q-.14.188-.297.384t-.68.695-1.11.944-1.563 1.016-2.055 1.008q.39.828.688 1.484.03.094.102.273t.117.258q.56-.078 1.163-.11t1.148-.03 1.08.023 1 .063.882.085.75.102.57.094.39.07zM24 14q0 3.266-1.61 6.023t-4.366 4.367T12 26 5.98 24.39 1.61 20.023.003 14t1.61-6.023T5.977 3.61 12 2t6.024 1.61 4.367 4.367T24 14z"/></symbol><symbol viewBox="0 0 16 28" id="icon-facebook"><title>facebook</title><path d="M14.984.187v4.125H12.53q-1.343 0-1.812.562t-.47 1.687v2.954h4.58l-.61 4.625h-3.97v11.858H5.47v-11.86H1.484V9.515h3.984V6.108q0-2.906 1.625-4.508T11.42-.002q2.298 0 3.564.187z"/></symbol><symbol viewBox="0 0 48 48" id="icon-gear"><title>gear</title><path d="M21 24.5c0-1.38 1.12-2.5 2.5-2.5s2.5 1.12 2.5 2.5-1.12 2.5-2.5 2.5-2.5-1.12-2.5-2.5zm2.5-6.5c-3.59 0-6.5 2.91-6.5 6.5s2.91 6.5 6.5 6.5 6.5-2.91 6.5-6.5-2.91-6.5-6.5-6.5zM6.66 29.28c.38 1.35.92 2.63 1.6 3.82l-3 3.28c-.86.86-.86 2.25 0 3.11l3.25 3.25c.86.858 2.25.858 3.11 0l3.28-3c1.19.68 2.47 1.22 3.82 1.6L19 45.8c0 1.22.98 2.2 2.2 2.2h4.6c1.22 0 2.2-.98 2.2-2.2l.28-4.46c1.35-.38 2.63-.92 3.82-1.6l3.28 3c.86.86 2.25.86 3.11 0l3.25-3.25c.858-.86.858-2.25 0-3.11l-3-3.28c.68-1.19 1.22-2.47 1.6-3.82L44.8 29c1.22 0 2.2-.98 2.2-2.2v-4.6c0-1.22-.98-2.2-2.2-2.2l-4.46-.28c-.38-1.35-.92-2.63-1.6-3.82l3-3.28c.86-.86.86-2.25 0-3.11l-3.25-3.25c-.86-.86-2.25-.86-3.11 0l-3.28 3c-1.19-.68-2.47-1.22-3.82-1.6L28 3.2c0-1.22-.98-2.2-2.2-2.2h-4.6c-1.22 0-2.2.98-2.2 2.2l-.28 4.46c-1.35.38-2.63.92-3.82 1.6l-3.28-3c-.86-.86-2.25-.86-3.11 0L5.26 9.51c-.86.86-.86 2.25 0 3.11l3 3.28c-.68 1.19-1.22 2.47-1.6 3.82L2.2 20C.98 20 0 20.98 0 22.2v4.6C0 28.02.98 29 2.2 29l4.46.28zM23.5 14C29.3 14 34 18.7 34 24.5S29.3 35 23.5 35 13 30.3 13 24.5 17.7 14 23.5 14z"/></symbol><symbol viewBox="0 0 48 48" id="icon-pen"><title>pen</title><path d="M23.11 27.64L6.16 44.59c-.36.36-.58.86-.58 1.41 0 1.1.89 2 2 2 .29 0 .56-.06.81-.17 0 0 28.24-12.24 28.56-12.39.66-.3 1.17-.88 1.37-1.6l4.57-16.47.92.91c.96.96 2.51.96 3.47 0 .96-.96.96-2.512 0-3.47L33.19.72c-.96-.96-2.51-.96-3.47 0-.96.96-.96 2.51 0 3.47l.91.91-16.5 4.59c-.72.21-1.3.73-1.6 1.41L.16 39.64c-.1.24-.16.5-.16.78 0 1.11.9 2 2 2 .57 0 1.08-.23 1.44-.61l16.92-16.92C20.13 24.3 20 23.67 20 23c0-2.76 2.24-5 5-5s5 2.24 5 5-2.24 5-5 5c-.67 0-1.3-.13-1.89-.36z"/></symbol><symbol viewBox="0 0 22 28" id="icon-rss"><title>rss</title><path d="M6 21q0 1.25-.875 2.125T3 24t-2.125-.875T0 21t.875-2.125T3 18t2.125.875T6 21zm8 1.922q.03.438-.266.75Q13.454 24 13 24h-2.11q-.39 0-.67-.258t-.314-.648q-.344-3.578-2.883-6.117T.906 14.094q-.39-.03-.648-.313T0 13.11V11q0-.453.328-.734Q.594 10 1 10h.078q2.5.203 4.78 1.258t4.048 2.836q1.78 1.766 2.836 4.047T14 22.923zm8 .03q.03.423-.28.735Q21.437 24 21 24h-2.234q-.406 0-.695-.273t-.304-.664q-.187-3.36-1.578-6.383t-3.617-5.25-5.25-3.617T.94 6.22q-.39-.017-.664-.306T0 5.234V3q0-.438.314-.72.28-.28.688-.28h.047q4.093.203 7.835 1.875t6.648 4.594q2.922 2.905 4.594 6.647t1.875 7.836z"/></symbol><symbol viewBox="0 0 256 256" id="icon-social-1-rss"><title>social-1-rss</title><rect width="256" height="256" rx="55" ry="55"/><rect width="246" height="246" rx="50" ry="50" x="5" y="5"/><rect width="236" height="236" rx="47" ry="47" x="10" y="10"/><circle cx="68" cy="189" r="24"/><path d="M160 213h-34a82 82 0 0 0-82-82V97a116 116 0 0 1 116 116z"/><path d="M184 213A140 140 0 0 0 44 73V38a175 175 0 0 1 175 175z"/></symbol><symbol viewBox="0 0 266.893 266.895" id="icon-social-2-facebook"><title>social-2-facebook</title><path d="M248.082 262.307c7.854 0 14.223-6.37 14.223-14.225V18.812c0-7.857-6.368-14.224-14.223-14.224H18.812c-7.857 0-14.224 6.367-14.224 14.224v229.27c0 7.855 6.366 14.225 14.224 14.225h229.27z"/><path d="M182.41 262.307v-99.803h33.498l5.016-38.895H182.41V98.776c0-11.26 3.126-18.935 19.274-18.935l20.596-.01V45.046c-3.562-.474-15.788-1.533-30.012-1.533-29.695 0-50.025 18.126-50.025 51.413v28.684h-33.585v38.894h33.585v99.803h40.166z"/></symbol><symbol viewBox="0 0 26 28" id="icon-twitter"><title>twitter</title><path d="M25.312 6.375q-1.047 1.53-2.53 2.61.015.218.015.655 0 2.03-.594 4.055t-1.805 3.883-2.883 3.29-4.03 2.28T8.436 24q-4.234 0-7.75-2.266.547.063 1.22.063 3.515 0 6.265-2.156-1.64-.03-2.938-1.007t-1.78-2.492q.515.08.952.08.672 0 1.328-.173-1.75-.36-2.898-1.742t-1.148-3.21v-.064q1.062.595 2.28.642-1.03-.688-1.64-1.797t-.61-2.406q0-1.376.69-2.548 1.89 2.328 4.6 3.727t5.806 1.554q-.125-.594-.125-1.156 0-2.094 1.476-3.57T17.736 4q2.188 0 3.687 1.595 1.703-.328 3.203-1.22-.578 1.798-2.22 2.782 1.454-.156 2.907-.78z"/></symbol><symbol viewBox="0 0 48 48" id="icon-user"><title>user</title><path d="M41.69 34.59c-2.9-3.79-6.64-5.75-12.96-6.38-1.14-.23-2-1.24-2-2.44 0-.88 2.82-3.51 2.8-3.53 2.91-3.01 4.47-7.9 4.47-11.66C34 4.74 29.3 0 23.5 0S13 4.74 13 10.58c0 3.78 1.52 8.7 4.46 11.71 0 0 2.81 2.6 2.81 3.48 0 1.27-.96 2.33-2.2 2.48-6.19.65-9.89 2.6-12.76 6.34C4.48 35.67 4.03 37.84 4 39c.01.3 0 5 0 5 0 2.21 1.79 4 4 4h31c2.21 0 4-1.79 4-4 0 0-.01-4.7 0-5-.03-1.16-.48-3.33-1.31-4.41z"/></symbol></svg>